<?xml version="1.0" encoding="iso-8859-1"?>
<!-- Generator: Adobe Illustrator 16.0.0, SVG Export Plug-In . SVG Version: 6.00 Build 0)  -->
<!DOCTYPE svg PUBLIC "-//W3C//DTD SVG 1.1//EN" "http://www.w3.org/Graphics/SVG/1.1/DTD/svg11.dtd">
<svg version="1.1" id="Capa_1" xmlns="http://www.w3.org/2000/svg" xmlns:xlink="http://www.w3.org/1999/xlink" x="0px" y="0px"
	 width="791.996px" height="791.996px" viewBox="0 0 791.996 791.996" style="enable-background:new 0 0 791.996 791.996;"
	 xml:space="preserve">
<g>
	<path d="M508.874,239.392c0-158.613-58.744-204.142-58.744-204.142S427.372,18.36,398.733,0c-7.345,15.42-15.421,23.5-15.421,23.5
		s-46.996,1.473-80.776,95.461c-19.089,93.989-22.026,172.561-17.623,304.736c4.407,132.177,63.883,191.656,63.883,191.656
		l5.707,18.072c1.261,87.379,4.942,147.511,4.942,147.511s1.838,13.583,10.649,10.644c0,0-3.552-61.029-4.501-153.101
		C395.737,618.331,501.327,527.459,508.874,239.392z M360.48,582.849c0,0-9.061-340.258,49.583-510.143
		c-48.786,222.164-41.815,518.463-41.815,518.463C361.512,593.153,360.48,582.849,360.48,582.849z"/>
</g>
<g>
</g>
<g>
</g>
<g>
</g>
<g>
</g>
<g>
</g>
<g>
</g>
<g>
</g>
<g>
</g>
<g>
</g>
<g>
</g>
<g>
</g>
<g>
</g>
<g>
</g>
<g>
</g>
<g>
</g>
</svg>
