<?xml version="1.0" encoding="utf-8"?>
<!-- Generator: Adobe Illustrator 21.0.0, SVG Export Plug-In . SVG Version: 6.00 Build 0)  -->
<svg version="1.1" id="Capa_1" xmlns="http://www.w3.org/2000/svg" xmlns:xlink="http://www.w3.org/1999/xlink" x="0px" y="0px"
	 width="205.3px" height="466px" viewBox="0 0 205.3 466" style="enable-background:new 0 0 205.3 466;" xml:space="preserve">
<path d="M203.9,210.4c0.1-2.8,0.1-5.6,0.1-8.4c0-39.9-8.8-78-26.3-113.4C161.2,55,136.9,25,107.6,1.8c0,0,0,0,0,0
	c0,0-0.1-0.1-0.1-0.1c0,0-0.1,0-0.1-0.1c-0.7-0.5-1.4-0.9-2.2-1.2c-0.1,0-0.1,0-0.1-0.1c-0.4-0.1-0.7-0.2-1.1-0.3
	c-0.1,0-0.1,0-0.2,0C103.3,0,102.9,0,102.5,0s-0.8,0-1.2,0.1c-0.1,0-0.1,0-0.2,0c-0.4,0.1-0.8,0.2-1.1,0.3c-0.1,0-0.1,0-0.1,0.1
	c-0.8,0.3-1.5,0.7-2.2,1.2c0,0-0.1,0-0.1,0.1c0,0-0.1,0.1-0.1,0.1c0,0,0,0,0,0C68.1,25,43.8,55,27.2,88.6C9.8,124,1,162.1,1,202
	c0,2.8,0.1,5.6,0.1,8.4c0,0.2,0,0.4,0,0.6c1.2,36.6,10,71.7,26.1,104.4c16,32.5,39.3,61.7,67.3,84.5v12.8l-3.1-2.5
	c-13.7-10.8-26.4-23-37.8-36.5c-2.9-3.4-7.9-3.8-11.3-0.9c-3.4,2.9-3.8,7.9-0.9,11.3c12.1,14.3,25.6,27.3,40.1,38.7l13,10.3v25
	c0,4.4,3.6,8,8,8s8-3.6,8-8v-25l13-10.3c14.5-11.4,28-24.5,40.1-38.7c2.9-3.4,2.4-8.4-0.9-11.3c-3.4-2.9-8.4-2.4-11.3,0.9
	c-11.4,13.5-24.1,25.7-37.8,36.5l-3.1,2.5v-12.8c28-22.8,51.2-51.9,67.3-84.5c16.1-32.7,24.9-67.8,26.1-104.4
	C203.9,210.8,203.9,210.6,203.9,210.4z M17.3,213.6l34.3-34.9c3.1-3.2,3-8.2-0.1-11.3c-3.2-3.1-8.2-3-11.3,0.1l-22.8,23.3
	c0.5-11.4,1.8-22.6,3.9-33.7l73.4-74.9v29.7L60.1,147c-3.1,3.2-3,8.2,0.1,11.3s8.2,3,11.3-0.1l23-23.4v33.9L20.6,244
	C18.9,234,17.7,223.9,17.3,213.6z M110.5,134.8l77.2,78.8c-0.5,10.3-1.6,20.5-3.3,30.4l-73.9-75.4V134.8z M110.5,111.9V82.2
	l73.4,74.9c2.1,11,3.4,22.3,3.9,33.7L110.5,111.9z M175.9,126.1l-65.4-66.7V25.3C140.9,52.9,163.3,87.6,175.9,126.1z M94.5,25.3
	v34.1l-65.4,66.7C41.7,87.6,64.1,52.9,94.5,25.3z M24.6,262.8l69.9-71.3v187.2C60.1,347.5,36.1,307.3,24.6,262.8z M110.5,378.7
	V191.5l69.9,71.3C168.9,307.3,144.9,347.5,110.5,378.7z"/>
</svg>
